<?xml version="1.0" encoding="UTF-8"?>
<svg xmlns="http://www.w3.org/2000/svg" width="636" height="181" viewBox="0 0 636 181" shape-rendering="crispEdges">
  <title>Music pixel logo traced from raster</title>
  <desc>Pixel-accurate SVG trace with transparent background.</desc>
  <path fill="#f2f2f2" d="M40 12h42v1h-42zM138 12h42v1h-42zM194 12h28v1h-28zM278 12h28v1h-28zM320 12h98v1h-98zM432 12h28v1h-28zM488 12h84v1h-84zM40 13h42v1h-42zM138 13h42v1h-42zM194 13h28v1h-28zM278 13h28v1h-28zM320 13h98v1h-98zM432 13h28v1h-28zM488 13h84v1h-84zM40 14h42v1h-42zM138 14h42v1h-42zM194 14h28v1h-28zM278 14h28v1h-28zM320 14h98v1h-98zM432 14h28v1h-28zM488 14h84v1h-84zM40 15h42v1h-42zM138 15h42v1h-42zM194 15h28v1h-28zM278 15h28v1h-28zM320 15h98v1h-98zM432 15h28v1h-28zM488 15h84v1h-84zM40 16h42v1h-42zM138 16h42v1h-42zM194 16h28v1h-28zM278 16h28v1h-28zM320 16h98v1h-98zM432 16h28v1h-28zM488 16h84v1h-84zM40 17h42v1h-42zM138 17h42v1h-42zM194 17h28v1h-28zM278 17h28v1h-28zM320 17h98v1h-98zM432 17h28v1h-28zM488 17h84v1h-84zM40 18h42v1h-42zM138 18h42v1h-42zM194 18h28v1h-28zM278 18h28v1h-28zM320 18h98v1h-98zM432 18h28v1h-28zM488 18h84v1h-84zM40 19h42v1h-42zM138 19h42v1h-42zM194 19h28v1h-28zM278 19h28v1h-28zM320 19h98v1h-98zM432 19h28v1h-28zM488 19h84v1h-84zM40 20h42v1h-42zM138 20h42v1h-42zM194 20h28v1h-28zM278 20h28v1h-28zM320 20h98v1h-98zM432 20h28v1h-28zM488 20h84v1h-84zM40 21h42v1h-42zM138 21h42v1h-42zM194 21h28v1h-28zM278 21h28v1h-28zM320 21h98v1h-98zM432 21h28v1h-28zM488 21h84v1h-84zM40 22h42v1h-42zM138 22h42v1h-42zM194 22h28v1h-28zM278 22h28v1h-28zM320 22h98v1h-98zM432 22h28v1h-28zM488 22h84v1h-84zM40 23h52v1h-52zM138 23h52v1h-52zM194 23h38v1h-38zM278 23h38v1h-38zM320 23h108v1h-108zM432 23h38v1h-38zM488 23h94v1h-94zM40 24h52v1h-52zM138 24h52v1h-52zM194 24h38v1h-38zM278 24h38v1h-38zM320 24h108v1h-108zM432 24h38v1h-38zM488 24h94v1h-94zM40 25h42v1h-42zM90 25h2v1h-2zM138 25h42v1h-42zM188 25h2v1h-2zM194 25h28v1h-28zM230 25h2v1h-2zM278 25h28v1h-28zM314 25h2v1h-2zM320 25h98v1h-98zM426 25h2v1h-2zM432 25h28v1h-28zM468 25h2v1h-2zM488 25h84v1h-84zM580 25h2v1h-2zM40 26h42v1h-42zM90 26h2v1h-2zM138 26h42v1h-42zM188 26h2v1h-2zM194 26h28v1h-28zM230 26h2v1h-2zM278 26h28v1h-28zM314 26h2v1h-2zM320 26h98v1h-98zM426 26h2v1h-2zM432 26h28v1h-28zM468 26h2v1h-2zM488 26h84v1h-84zM580 26h2v1h-2zM40 27h48v1h-48zM90 27h2v1h-2zM138 27h48v1h-48zM188 27h2v1h-2zM194 27h34v1h-34zM230 27h2v1h-2zM278 27h34v1h-34zM314 27h2v1h-2zM320 27h104v1h-104zM426 27h2v1h-2zM432 27h34v1h-34zM468 27h2v1h-2zM488 27h90v1h-90zM580 27h2v1h-2zM40 28h48v1h-48zM90 28h2v1h-2zM138 28h48v1h-48zM188 28h2v1h-2zM194 28h34v1h-34zM230 28h2v1h-2zM278 28h34v1h-34zM314 28h2v1h-2zM320 28h104v1h-104zM426 28h2v1h-2zM432 28h34v1h-34zM468 28h2v1h-2zM488 28h90v1h-90zM580 28h2v1h-2zM40 29h42v1h-42zM86 29h2v1h-2zM90 29h2v1h-2zM138 29h42v1h-42zM184 29h2v1h-2zM188 29h2v1h-2zM194 29h28v1h-28zM226 29h2v1h-2zM230 29h2v1h-2zM278 29h28v1h-28zM310 29h2v1h-2zM314 29h2v1h-2zM320 29h98v1h-98zM422 29h2v1h-2zM426 29h2v1h-2zM432 29h28v1h-28zM464 29h2v1h-2zM468 29h2v1h-2zM488 29h84v1h-84zM576 29h2v1h-2zM580 29h2v1h-2zM40 30h42v1h-42zM86 30h2v1h-2zM90 30h2v1h-2zM138 30h42v1h-42zM184 30h2v1h-2zM188 30h2v1h-2zM194 30h28v1h-28zM226 30h2v1h-2zM230 30h2v1h-2zM278 30h28v1h-28zM310 30h2v1h-2zM314 30h2v1h-2zM320 30h98v1h-98zM422 30h2v1h-2zM426 30h2v1h-2zM432 30h28v1h-28zM464 30h2v1h-2zM468 30h2v1h-2zM488 30h84v1h-84zM576 30h2v1h-2zM580 30h2v1h-2zM40 31h42v1h-42zM86 31h2v1h-2zM90 31h2v1h-2zM138 31h42v1h-42zM184 31h2v1h-2zM188 31h2v1h-2zM194 31h28v1h-28zM226 31h2v1h-2zM230 31h2v1h-2zM278 31h28v1h-28zM310 31h2v1h-2zM314 31h2v1h-2zM320 31h98v1h-98zM422 31h2v1h-2zM426 31h2v1h-2zM432 31h28v1h-28zM464 31h2v1h-2zM468 31h2v1h-2zM488 31h84v1h-84zM576 31h2v1h-2zM580 31h2v1h-2zM40 32h42v1h-42zM86 32h2v1h-2zM90 32h2v1h-2zM138 32h42v1h-42zM184 32h2v1h-2zM188 32h2v1h-2zM194 32h28v1h-28zM226 32h2v1h-2zM230 32h2v1h-2zM278 32h28v1h-28zM310 32h2v1h-2zM314 32h2v1h-2zM320 32h98v1h-98zM422 32h2v1h-2zM426 32h2v1h-2zM432 32h28v1h-28zM464 32h2v1h-2zM468 32h2v1h-2zM488 32h84v1h-84zM576 32h2v1h-2zM580 32h2v1h-2zM40 33h42v1h-42zM86 33h2v1h-2zM90 33h2v1h-2zM138 33h42v1h-42zM184 33h2v1h-2zM188 33h2v1h-2zM194 33h28v1h-28zM226 33h2v1h-2zM230 33h2v1h-2zM278 33h28v1h-28zM310 33h2v1h-2zM314 33h2v1h-2zM320 33h98v1h-98zM422 33h2v1h-2zM426 33h2v1h-2zM432 33h28v1h-28zM464 33h2v1h-2zM468 33h2v1h-2zM488 33h84v1h-84zM576 33h2v1h-2zM580 33h2v1h-2zM40 34h42v1h-42zM86 34h2v1h-2zM90 34h2v1h-2zM138 34h42v1h-42zM184 34h2v1h-2zM188 34h2v1h-2zM194 34h28v1h-28zM226 34h2v1h-2zM230 34h2v1h-2zM278 34h28v1h-28zM310 34h2v1h-2zM314 34h2v1h-2zM320 34h98v1h-98zM422 34h2v1h-2zM426 34h2v1h-2zM432 34h28v1h-28zM464 34h2v1h-2zM468 34h2v1h-2zM488 34h84v1h-84zM576 34h2v1h-2zM580 34h2v1h-2zM40 35h42v1h-42zM86 35h2v1h-2zM90 35h2v1h-2zM138 35h42v1h-42zM184 35h2v1h-2zM188 35h2v1h-2zM194 35h28v1h-28zM226 35h2v1h-2zM230 35h2v1h-2zM278 35h28v1h-28zM310 35h2v1h-2zM314 35h2v1h-2zM320 35h98v1h-98zM422 35h2v1h-2zM426 35h2v1h-2zM432 35h28v1h-28zM464 35h2v1h-2zM468 35h2v1h-2zM488 35h84v1h-84zM576 35h2v1h-2zM580 35h2v1h-2zM40 36h42v1h-42zM86 36h2v1h-2zM90 36h2v1h-2zM138 36h42v1h-42zM184 36h2v1h-2zM188 36h2v1h-2zM194 36h28v1h-28zM226 36h2v1h-2zM230 36h2v1h-2zM278 36h28v1h-28zM310 36h2v1h-2zM314 36h2v1h-2zM320 36h98v1h-98zM422 36h2v1h-2zM426 36h2v1h-2zM432 36h28v1h-28zM464 36h2v1h-2zM468 36h2v1h-2zM488 36h84v1h-84zM576 36h2v1h-2zM580 36h2v1h-2zM40 37h42v1h-42zM86 37h2v1h-2zM90 37h2v1h-2zM138 37h42v1h-42zM184 37h2v1h-2zM188 37h2v1h-2zM194 37h28v1h-28zM226 37h2v1h-2zM230 37h2v1h-2zM278 37h28v1h-28zM310 37h2v1h-2zM314 37h2v1h-2zM320 37h98v1h-98zM422 37h2v1h-2zM426 37h2v1h-2zM432 37h28v1h-28zM464 37h2v1h-2zM468 37h2v1h-2zM488 37h84v1h-84zM576 37h2v1h-2zM580 37h2v1h-2zM40 38h42v1h-42zM86 38h2v1h-2zM90 38h2v1h-2zM138 38h42v1h-42zM184 38h2v1h-2zM188 38h2v1h-2zM194 38h28v1h-28zM226 38h2v1h-2zM230 38h2v1h-2zM278 38h28v1h-28zM310 38h2v1h-2zM314 38h2v1h-2zM320 38h98v1h-98zM422 38h2v1h-2zM426 38h2v1h-2zM432 38h28v1h-28zM464 38h2v1h-2zM468 38h2v1h-2zM488 38h84v1h-84zM576 38h2v1h-2zM580 38h2v1h-2zM40 39h42v1h-42zM86 39h2v1h-2zM90 39h2v1h-2zM138 39h42v1h-42zM184 39h2v1h-2zM188 39h2v1h-2zM194 39h28v1h-28zM226 39h2v1h-2zM230 39h2v1h-2zM278 39h28v1h-28zM310 39h2v1h-2zM314 39h2v1h-2zM320 39h98v1h-98zM422 39h2v1h-2zM426 39h2v1h-2zM432 39h28v1h-28zM464 39h2v1h-2zM468 39h2v1h-2zM488 39h84v1h-84zM576 39h2v1h-2zM580 39h2v1h-2zM40 40h56v1h-56zM124 40h56v1h-56zM184 40h2v1h-2zM188 40h2v1h-2zM194 40h28v1h-28zM226 40h2v1h-2zM230 40h2v1h-2zM278 40h28v1h-28zM310 40h2v1h-2zM314 40h2v1h-2zM320 40h28v1h-28zM422 40h2v1h-2zM426 40h2v1h-2zM432 40h28v1h-28zM464 40h2v1h-2zM468 40h2v1h-2zM474 40h28v1h-28zM558 40h28v1h-28zM40 41h56v1h-56zM124 41h56v1h-56zM184 41h2v1h-2zM188 41h2v1h-2zM194 41h28v1h-28zM226 41h2v1h-2zM230 41h2v1h-2zM278 41h28v1h-28zM310 41h2v1h-2zM314 41h2v1h-2zM320 41h28v1h-28zM422 41h2v1h-2zM426 41h2v1h-2zM432 41h28v1h-28zM464 41h2v1h-2zM468 41h2v1h-2zM474 41h28v1h-28zM558 41h28v1h-28zM40 42h56v1h-56zM124 42h56v1h-56zM184 42h2v1h-2zM188 42h2v1h-2zM194 42h28v1h-28zM226 42h2v1h-2zM230 42h2v1h-2zM278 42h28v1h-28zM310 42h2v1h-2zM314 42h2v1h-2zM320 42h28v1h-28zM422 42h2v1h-2zM426 42h2v1h-2zM432 42h28v1h-28zM464 42h2v1h-2zM468 42h2v1h-2zM474 42h28v1h-28zM558 42h28v1h-28zM40 43h56v1h-56zM124 43h56v1h-56zM184 43h2v1h-2zM188 43h2v1h-2zM194 43h28v1h-28zM226 43h2v1h-2zM230 43h2v1h-2zM278 43h28v1h-28zM310 43h2v1h-2zM314 43h2v1h-2zM320 43h28v1h-28zM422 43h2v1h-2zM426 43h2v1h-2zM432 43h28v1h-28zM464 43h2v1h-2zM468 43h2v1h-2zM474 43h28v1h-28zM558 43h28v1h-28zM40 44h56v1h-56zM124 44h56v1h-56zM184 44h2v1h-2zM188 44h2v1h-2zM194 44h28v1h-28zM226 44h2v1h-2zM230 44h2v1h-2zM278 44h28v1h-28zM310 44h2v1h-2zM314 44h2v1h-2zM320 44h28v1h-28zM422 44h2v1h-2zM426 44h2v1h-2zM432 44h28v1h-28zM464 44h2v1h-2zM468 44h2v1h-2zM474 44h28v1h-28zM558 44h28v1h-28zM40 45h56v1h-56zM124 45h56v1h-56zM184 45h2v1h-2zM188 45h2v1h-2zM194 45h28v1h-28zM226 45h2v1h-2zM230 45h2v1h-2zM278 45h28v1h-28zM310 45h2v1h-2zM314 45h2v1h-2zM320 45h28v1h-28zM422 45h2v1h-2zM426 45h2v1h-2zM432 45h28v1h-28zM464 45h2v1h-2zM468 45h2v1h-2zM474 45h28v1h-28zM558 45h28v1h-28zM40 46h56v1h-56zM124 46h56v1h-56zM184 46h2v1h-2zM188 46h2v1h-2zM194 46h28v1h-28zM226 46h2v1h-2zM230 46h2v1h-2zM278 46h28v1h-28zM310 46h2v1h-2zM314 46h2v1h-2zM320 46h28v1h-28zM422 46h2v1h-2zM426 46h2v1h-2zM432 46h28v1h-28zM464 46h2v1h-2zM468 46h2v1h-2zM474 46h28v1h-28zM558 46h28v1h-28zM40 47h56v1h-56zM124 47h56v1h-56zM184 47h2v1h-2zM188 47h2v1h-2zM194 47h28v1h-28zM226 47h2v1h-2zM230 47h2v1h-2zM278 47h28v1h-28zM310 47h2v1h-2zM314 47h2v1h-2zM320 47h28v1h-28zM422 47h2v1h-2zM426 47h2v1h-2zM432 47h28v1h-28zM464 47h2v1h-2zM468 47h2v1h-2zM474 47h28v1h-28zM558 47h28v1h-28zM40 48h56v1h-56zM124 48h56v1h-56zM184 48h2v1h-2zM188 48h2v1h-2zM194 48h28v1h-28zM226 48h2v1h-2zM230 48h2v1h-2zM278 48h28v1h-28zM310 48h2v1h-2zM314 48h2v1h-2zM320 48h28v1h-28zM422 48h2v1h-2zM426 48h2v1h-2zM432 48h28v1h-28zM464 48h2v1h-2zM468 48h2v1h-2zM474 48h28v1h-28zM558 48h28v1h-28zM40 49h56v1h-56zM124 49h56v1h-56zM184 49h2v1h-2zM188 49h2v1h-2zM194 49h28v1h-28zM226 49h2v1h-2zM230 49h2v1h-2zM278 49h28v1h-28zM310 49h2v1h-2zM314 49h2v1h-2zM320 49h28v1h-28zM422 49h2v1h-2zM426 49h2v1h-2zM432 49h28v1h-28zM464 49h2v1h-2zM468 49h2v1h-2zM474 49h28v1h-28zM558 49h28v1h-28zM40 50h56v1h-56zM124 50h56v1h-56zM184 50h2v1h-2zM188 50h2v1h-2zM194 50h28v1h-28zM226 50h2v1h-2zM230 50h2v1h-2zM278 50h28v1h-28zM310 50h2v1h-2zM314 50h2v1h-2zM320 50h28v1h-28zM422 50h2v1h-2zM426 50h2v1h-2zM432 50h28v1h-28zM464 50h2v1h-2zM468 50h2v1h-2zM474 50h28v1h-28zM558 50h28v1h-28zM40 51h66v1h-66zM124 51h56v1h-56zM184 51h2v1h-2zM188 51h2v1h-2zM194 51h28v1h-28zM226 51h2v1h-2zM230 51h2v1h-2zM278 51h28v1h-28zM310 51h2v1h-2zM314 51h2v1h-2zM320 51h28v1h-28zM352 51h72v1h-72zM426 51h2v1h-2zM432 51h28v1h-28zM464 51h2v1h-2zM468 51h2v1h-2zM474 51h28v1h-28zM506 51h90v1h-90zM40 52h66v1h-66zM124 52h56v1h-56zM184 52h2v1h-2zM188 52h2v1h-2zM194 52h28v1h-28zM226 52h2v1h-2zM230 52h2v1h-2zM278 52h28v1h-28zM310 52h2v1h-2zM314 52h2v1h-2zM320 52h28v1h-28zM352 52h72v1h-72zM426 52h2v1h-2zM432 52h28v1h-28zM464 52h2v1h-2zM468 52h2v1h-2zM474 52h28v1h-28zM506 52h90v1h-90zM40 53h56v1h-56zM104 53h2v1h-2zM124 53h56v1h-56zM184 53h2v1h-2zM188 53h2v1h-2zM194 53h28v1h-28zM226 53h2v1h-2zM230 53h2v1h-2zM278 53h28v1h-28zM310 53h2v1h-2zM314 53h2v1h-2zM320 53h28v1h-28zM352 53h2v1h-2zM426 53h2v1h-2zM432 53h28v1h-28zM464 53h2v1h-2zM468 53h2v1h-2zM474 53h28v1h-28zM506 53h2v1h-2zM558 53h28v1h-28zM594 53h2v1h-2zM40 54h56v1h-56zM104 54h2v1h-2zM124 54h56v1h-56zM184 54h2v1h-2zM188 54h2v1h-2zM194 54h28v1h-28zM226 54h2v1h-2zM230 54h2v1h-2zM278 54h28v1h-28zM310 54h2v1h-2zM314 54h2v1h-2zM320 54h28v1h-28zM352 54h2v1h-2zM426 54h2v1h-2zM432 54h28v1h-28zM464 54h2v1h-2zM468 54h2v1h-2zM474 54h28v1h-28zM506 54h2v1h-2zM558 54h28v1h-28zM594 54h2v1h-2zM40 55h62v1h-62zM104 55h2v1h-2zM124 55h56v1h-56zM184 55h2v1h-2zM188 55h2v1h-2zM194 55h28v1h-28zM226 55h2v1h-2zM230 55h2v1h-2zM278 55h28v1h-28zM310 55h2v1h-2zM314 55h2v1h-2zM320 55h28v1h-28zM352 55h2v1h-2zM356 55h72v1h-72zM432 55h28v1h-28zM464 55h2v1h-2zM468 55h2v1h-2zM474 55h28v1h-28zM506 55h2v1h-2zM510 55h82v1h-82zM594 55h2v1h-2zM40 56h62v1h-62zM104 56h2v1h-2zM124 56h56v1h-56zM184 56h2v1h-2zM188 56h2v1h-2zM194 56h28v1h-28zM226 56h2v1h-2zM230 56h2v1h-2zM278 56h28v1h-28zM310 56h2v1h-2zM314 56h2v1h-2zM320 56h28v1h-28zM352 56h2v1h-2zM356 56h72v1h-72zM432 56h28v1h-28zM464 56h2v1h-2zM468 56h2v1h-2zM474 56h28v1h-28zM506 56h2v1h-2zM510 56h82v1h-82zM594 56h2v1h-2zM40 57h56v1h-56zM100 57h2v1h-2zM104 57h2v1h-2zM124 57h56v1h-56zM184 57h2v1h-2zM188 57h2v1h-2zM194 57h28v1h-28zM226 57h2v1h-2zM230 57h2v1h-2zM278 57h28v1h-28zM310 57h2v1h-2zM314 57h2v1h-2zM320 57h28v1h-28zM352 57h2v1h-2zM356 57h2v1h-2zM432 57h28v1h-28zM464 57h2v1h-2zM468 57h2v1h-2zM474 57h28v1h-28zM506 57h2v1h-2zM510 57h2v1h-2zM558 57h28v1h-28zM590 57h2v1h-2zM594 57h2v1h-2zM40 58h56v1h-56zM100 58h2v1h-2zM104 58h2v1h-2zM124 58h56v1h-56zM184 58h2v1h-2zM188 58h2v1h-2zM194 58h28v1h-28zM226 58h2v1h-2zM230 58h2v1h-2zM278 58h28v1h-28zM310 58h2v1h-2zM314 58h2v1h-2zM320 58h28v1h-28zM352 58h2v1h-2zM356 58h2v1h-2zM432 58h28v1h-28zM464 58h2v1h-2zM468 58h2v1h-2zM474 58h28v1h-28zM506 58h2v1h-2zM510 58h2v1h-2zM558 58h28v1h-28zM590 58h2v1h-2zM594 58h2v1h-2zM40 59h56v1h-56zM100 59h2v1h-2zM104 59h2v1h-2zM124 59h56v1h-56zM184 59h2v1h-2zM188 59h2v1h-2zM194 59h28v1h-28zM226 59h2v1h-2zM230 59h2v1h-2zM278 59h28v1h-28zM310 59h2v1h-2zM314 59h2v1h-2zM320 59h28v1h-28zM352 59h2v1h-2zM356 59h2v1h-2zM432 59h28v1h-28zM464 59h2v1h-2zM468 59h2v1h-2zM474 59h28v1h-28zM506 59h2v1h-2zM510 59h2v1h-2zM558 59h28v1h-28zM590 59h2v1h-2zM594 59h2v1h-2zM40 60h56v1h-56zM100 60h2v1h-2zM104 60h2v1h-2zM124 60h56v1h-56zM184 60h2v1h-2zM188 60h2v1h-2zM194 60h28v1h-28zM226 60h2v1h-2zM230 60h2v1h-2zM278 60h28v1h-28zM310 60h2v1h-2zM314 60h2v1h-2zM320 60h28v1h-28zM352 60h2v1h-2zM356 60h2v1h-2zM432 60h28v1h-28zM464 60h2v1h-2zM468 60h2v1h-2zM474 60h28v1h-28zM506 60h2v1h-2zM510 60h2v1h-2zM558 60h28v1h-28zM590 60h2v1h-2zM594 60h2v1h-2zM40 61h56v1h-56zM100 61h2v1h-2zM104 61h2v1h-2zM124 61h56v1h-56zM184 61h2v1h-2zM188 61h2v1h-2zM194 61h28v1h-28zM226 61h2v1h-2zM230 61h2v1h-2zM278 61h28v1h-28zM310 61h2v1h-2zM314 61h2v1h-2zM320 61h28v1h-28zM352 61h2v1h-2zM356 61h2v1h-2zM432 61h28v1h-28zM464 61h2v1h-2zM468 61h2v1h-2zM474 61h28v1h-28zM506 61h2v1h-2zM510 61h2v1h-2zM558 61h28v1h-28zM590 61h2v1h-2zM594 61h2v1h-2zM40 62h56v1h-56zM100 62h2v1h-2zM104 62h2v1h-2zM124 62h56v1h-56zM184 62h2v1h-2zM188 62h2v1h-2zM194 62h28v1h-28zM226 62h2v1h-2zM230 62h2v1h-2zM278 62h28v1h-28zM310 62h2v1h-2zM314 62h2v1h-2zM320 62h28v1h-28zM352 62h2v1h-2zM356 62h2v1h-2zM432 62h28v1h-28zM464 62h2v1h-2zM468 62h2v1h-2zM474 62h28v1h-28zM506 62h2v1h-2zM510 62h2v1h-2zM558 62h28v1h-28zM590 62h2v1h-2zM594 62h2v1h-2zM40 63h56v1h-56zM100 63h2v1h-2zM104 63h2v1h-2zM124 63h56v1h-56zM184 63h2v1h-2zM188 63h2v1h-2zM194 63h28v1h-28zM226 63h2v1h-2zM230 63h2v1h-2zM278 63h28v1h-28zM310 63h2v1h-2zM314 63h2v1h-2zM320 63h28v1h-28zM352 63h2v1h-2zM356 63h2v1h-2zM432 63h28v1h-28zM464 63h2v1h-2zM468 63h2v1h-2zM474 63h28v1h-28zM506 63h2v1h-2zM510 63h2v1h-2zM558 63h28v1h-28zM590 63h2v1h-2zM594 63h2v1h-2zM40 64h56v1h-56zM100 64h2v1h-2zM104 64h2v1h-2zM124 64h56v1h-56zM184 64h2v1h-2zM188 64h2v1h-2zM194 64h28v1h-28zM226 64h2v1h-2zM230 64h2v1h-2zM278 64h28v1h-28zM310 64h2v1h-2zM314 64h2v1h-2zM320 64h28v1h-28zM352 64h2v1h-2zM356 64h2v1h-2zM432 64h28v1h-28zM464 64h2v1h-2zM468 64h2v1h-2zM474 64h28v1h-28zM506 64h2v1h-2zM510 64h2v1h-2zM558 64h28v1h-28zM590 64h2v1h-2zM594 64h2v1h-2zM40 65h56v1h-56zM100 65h2v1h-2zM104 65h2v1h-2zM124 65h56v1h-56zM184 65h2v1h-2zM188 65h2v1h-2zM194 65h28v1h-28zM226 65h2v1h-2zM230 65h2v1h-2zM278 65h28v1h-28zM310 65h2v1h-2zM314 65h2v1h-2zM320 65h28v1h-28zM352 65h2v1h-2zM356 65h2v1h-2zM432 65h28v1h-28zM464 65h2v1h-2zM468 65h2v1h-2zM474 65h28v1h-28zM506 65h2v1h-2zM510 65h2v1h-2zM558 65h28v1h-28zM590 65h2v1h-2zM594 65h2v1h-2zM40 66h56v1h-56zM100 66h2v1h-2zM104 66h2v1h-2zM124 66h56v1h-56zM184 66h2v1h-2zM188 66h2v1h-2zM194 66h28v1h-28zM226 66h2v1h-2zM230 66h2v1h-2zM278 66h28v1h-28zM310 66h2v1h-2zM314 66h2v1h-2zM320 66h28v1h-28zM352 66h2v1h-2zM356 66h2v1h-2zM432 66h28v1h-28zM464 66h2v1h-2zM468 66h2v1h-2zM474 66h28v1h-28zM506 66h2v1h-2zM510 66h2v1h-2zM558 66h28v1h-28zM590 66h2v1h-2zM594 66h2v1h-2zM40 67h56v1h-56zM100 67h2v1h-2zM104 67h2v1h-2zM124 67h56v1h-56zM184 67h2v1h-2zM188 67h2v1h-2zM194 67h28v1h-28zM226 67h2v1h-2zM230 67h2v1h-2zM278 67h28v1h-28zM310 67h2v1h-2zM314 67h2v1h-2zM320 67h28v1h-28zM352 67h2v1h-2zM356 67h2v1h-2zM432 67h28v1h-28zM464 67h2v1h-2zM468 67h2v1h-2zM474 67h28v1h-28zM506 67h2v1h-2zM510 67h2v1h-2zM558 67h28v1h-28zM590 67h2v1h-2zM594 67h2v1h-2z"/>
  <path fill="#cccccc" d="M40 68h28v1h-28zM82 68h56v1h-56zM152 68h28v1h-28zM184 68h2v1h-2zM188 68h2v1h-2zM194 68h28v1h-28zM226 68h2v1h-2zM230 68h2v1h-2zM278 68h28v1h-28zM310 68h2v1h-2zM314 68h2v1h-2zM320 68h98v1h-98zM432 68h28v1h-28zM464 68h2v1h-2zM468 68h2v1h-2zM474 68h28v1h-28zM506 68h2v1h-2zM510 68h2v1h-2zM558 68h28v1h-28zM590 68h2v1h-2zM594 68h2v1h-2zM40 69h28v1h-28zM82 69h56v1h-56zM152 69h28v1h-28zM184 69h2v1h-2zM188 69h2v1h-2zM194 69h28v1h-28zM226 69h2v1h-2zM230 69h2v1h-2zM278 69h28v1h-28zM310 69h2v1h-2zM314 69h2v1h-2zM320 69h98v1h-98zM432 69h28v1h-28zM464 69h2v1h-2zM468 69h2v1h-2zM474 69h28v1h-28zM506 69h2v1h-2zM510 69h2v1h-2zM558 69h28v1h-28zM590 69h2v1h-2zM594 69h2v1h-2zM40 70h28v1h-28zM82 70h56v1h-56zM152 70h28v1h-28zM184 70h2v1h-2zM188 70h2v1h-2zM194 70h28v1h-28zM226 70h2v1h-2zM230 70h2v1h-2zM278 70h28v1h-28zM310 70h2v1h-2zM314 70h2v1h-2zM320 70h98v1h-98zM432 70h28v1h-28zM464 70h2v1h-2zM468 70h2v1h-2zM474 70h28v1h-28zM506 70h2v1h-2zM510 70h2v1h-2zM558 70h28v1h-28zM590 70h2v1h-2zM594 70h2v1h-2zM40 71h28v1h-28zM82 71h56v1h-56zM152 71h28v1h-28zM184 71h2v1h-2zM188 71h2v1h-2zM194 71h28v1h-28zM226 71h2v1h-2zM230 71h2v1h-2zM278 71h28v1h-28zM310 71h2v1h-2zM314 71h2v1h-2zM320 71h98v1h-98zM432 71h28v1h-28zM464 71h2v1h-2zM468 71h2v1h-2zM474 71h28v1h-28zM506 71h2v1h-2zM510 71h2v1h-2zM558 71h28v1h-28zM590 71h2v1h-2zM594 71h2v1h-2zM40 72h28v1h-28zM82 72h56v1h-56zM152 72h28v1h-28zM184 72h2v1h-2zM188 72h2v1h-2zM194 72h28v1h-28zM226 72h2v1h-2zM230 72h2v1h-2zM278 72h28v1h-28zM310 72h2v1h-2zM314 72h2v1h-2zM320 72h98v1h-98zM432 72h28v1h-28zM464 72h2v1h-2zM468 72h2v1h-2zM474 72h28v1h-28zM506 72h2v1h-2zM510 72h2v1h-2zM558 72h28v1h-28zM590 72h2v1h-2zM594 72h2v1h-2zM40 73h28v1h-28zM82 73h56v1h-56zM152 73h28v1h-28zM184 73h2v1h-2zM188 73h2v1h-2zM194 73h28v1h-28zM226 73h2v1h-2zM230 73h2v1h-2zM278 73h28v1h-28zM310 73h2v1h-2zM314 73h2v1h-2zM320 73h98v1h-98zM432 73h28v1h-28zM464 73h2v1h-2zM468 73h2v1h-2zM474 73h28v1h-28zM506 73h2v1h-2zM510 73h2v1h-2zM558 73h28v1h-28zM590 73h2v1h-2zM594 73h2v1h-2zM40 74h28v1h-28zM82 74h56v1h-56zM152 74h28v1h-28zM184 74h2v1h-2zM188 74h2v1h-2zM194 74h28v1h-28zM226 74h2v1h-2zM230 74h2v1h-2zM278 74h28v1h-28zM310 74h2v1h-2zM314 74h2v1h-2zM320 74h98v1h-98zM432 74h28v1h-28zM464 74h2v1h-2zM468 74h2v1h-2zM474 74h28v1h-28zM506 74h2v1h-2zM510 74h2v1h-2zM558 74h28v1h-28zM590 74h2v1h-2zM594 74h2v1h-2zM40 75h28v1h-28zM82 75h56v1h-56zM152 75h28v1h-28zM184 75h2v1h-2zM188 75h2v1h-2zM194 75h28v1h-28zM226 75h2v1h-2zM230 75h2v1h-2zM278 75h28v1h-28zM310 75h2v1h-2zM314 75h2v1h-2zM320 75h98v1h-98zM432 75h28v1h-28zM464 75h2v1h-2zM468 75h2v1h-2zM474 75h28v1h-28zM506 75h2v1h-2zM510 75h2v1h-2zM558 75h28v1h-28zM590 75h2v1h-2zM594 75h2v1h-2zM40 76h28v1h-28zM82 76h56v1h-56zM152 76h28v1h-28zM184 76h2v1h-2zM188 76h2v1h-2zM194 76h28v1h-28zM226 76h2v1h-2zM230 76h2v1h-2zM278 76h28v1h-28zM310 76h2v1h-2zM314 76h2v1h-2zM320 76h98v1h-98zM432 76h28v1h-28zM464 76h2v1h-2zM468 76h2v1h-2zM474 76h28v1h-28zM506 76h2v1h-2zM510 76h2v1h-2zM558 76h28v1h-28zM590 76h2v1h-2zM594 76h2v1h-2zM40 77h28v1h-28zM82 77h56v1h-56zM152 77h28v1h-28zM184 77h2v1h-2zM188 77h2v1h-2zM194 77h28v1h-28zM226 77h2v1h-2zM230 77h2v1h-2zM278 77h28v1h-28zM310 77h2v1h-2zM314 77h2v1h-2zM320 77h98v1h-98zM432 77h28v1h-28zM464 77h2v1h-2zM468 77h2v1h-2zM474 77h28v1h-28zM506 77h2v1h-2zM510 77h2v1h-2zM558 77h28v1h-28zM590 77h2v1h-2zM594 77h2v1h-2zM40 78h28v1h-28zM82 78h56v1h-56zM152 78h28v1h-28zM184 78h2v1h-2zM188 78h2v1h-2zM194 78h28v1h-28zM226 78h2v1h-2zM230 78h2v1h-2zM278 78h28v1h-28zM310 78h2v1h-2zM314 78h2v1h-2zM320 78h98v1h-98zM432 78h28v1h-28zM464 78h2v1h-2zM468 78h2v1h-2zM474 78h28v1h-28zM506 78h2v1h-2zM510 78h2v1h-2zM558 78h28v1h-28zM590 78h2v1h-2zM594 78h2v1h-2zM40 79h28v1h-28zM72 79h66v1h-66zM142 79h38v1h-38zM184 79h2v1h-2zM188 79h2v1h-2zM194 79h28v1h-28zM226 79h2v1h-2zM230 79h2v1h-2zM278 79h28v1h-28zM310 79h2v1h-2zM314 79h2v1h-2zM320 79h108v1h-108zM432 79h28v1h-28zM464 79h2v1h-2zM468 79h2v1h-2zM474 79h28v1h-28zM506 79h2v1h-2zM510 79h2v1h-2zM558 79h28v1h-28zM590 79h2v1h-2zM594 79h2v1h-2zM40 80h28v1h-28zM72 80h66v1h-66zM142 80h38v1h-38zM184 80h2v1h-2zM188 80h2v1h-2zM194 80h28v1h-28zM226 80h2v1h-2zM230 80h2v1h-2zM278 80h28v1h-28zM310 80h2v1h-2zM314 80h2v1h-2zM320 80h108v1h-108zM432 80h28v1h-28zM464 80h2v1h-2zM468 80h2v1h-2zM474 80h28v1h-28zM506 80h2v1h-2zM510 80h2v1h-2zM558 80h28v1h-28zM590 80h2v1h-2zM594 80h2v1h-2zM40 81h28v1h-28zM72 81h2v1h-2zM82 81h56v1h-56zM142 81h2v1h-2zM152 81h28v1h-28zM184 81h2v1h-2zM188 81h2v1h-2zM194 81h28v1h-28zM226 81h2v1h-2zM230 81h2v1h-2zM278 81h28v1h-28zM310 81h2v1h-2zM314 81h2v1h-2zM320 81h98v1h-98zM426 81h2v1h-2zM432 81h28v1h-28zM464 81h2v1h-2zM468 81h2v1h-2zM474 81h28v1h-28zM506 81h2v1h-2zM510 81h2v1h-2zM558 81h28v1h-28zM590 81h2v1h-2zM594 81h2v1h-2zM40 82h28v1h-28zM72 82h2v1h-2zM82 82h56v1h-56zM142 82h2v1h-2zM152 82h28v1h-28zM184 82h2v1h-2zM188 82h2v1h-2zM194 82h28v1h-28zM226 82h2v1h-2zM230 82h2v1h-2zM278 82h28v1h-28zM310 82h2v1h-2zM314 82h2v1h-2zM320 82h98v1h-98zM426 82h2v1h-2zM432 82h28v1h-28zM464 82h2v1h-2zM468 82h2v1h-2zM474 82h28v1h-28zM506 82h2v1h-2zM510 82h2v1h-2zM558 82h28v1h-28zM590 82h2v1h-2zM594 82h2v1h-2zM40 83h28v1h-28zM72 83h2v1h-2zM76 83h62v1h-62zM142 83h2v1h-2zM146 83h34v1h-34zM184 83h2v1h-2zM188 83h2v1h-2zM194 83h28v1h-28zM226 83h2v1h-2zM230 83h2v1h-2zM278 83h28v1h-28zM310 83h2v1h-2zM314 83h2v1h-2zM320 83h104v1h-104zM426 83h2v1h-2zM432 83h28v1h-28zM464 83h2v1h-2zM468 83h2v1h-2zM474 83h28v1h-28zM506 83h2v1h-2zM510 83h2v1h-2zM558 83h28v1h-28zM590 83h2v1h-2zM594 83h2v1h-2zM40 84h28v1h-28zM72 84h2v1h-2zM76 84h62v1h-62zM142 84h2v1h-2zM146 84h34v1h-34zM184 84h2v1h-2zM188 84h2v1h-2zM194 84h28v1h-28zM226 84h2v1h-2zM230 84h2v1h-2zM278 84h28v1h-28zM310 84h2v1h-2zM314 84h2v1h-2zM320 84h104v1h-104zM426 84h2v1h-2zM432 84h28v1h-28zM464 84h2v1h-2zM468 84h2v1h-2zM474 84h28v1h-28zM506 84h2v1h-2zM510 84h2v1h-2zM558 84h28v1h-28zM590 84h2v1h-2zM594 84h2v1h-2zM40 85h28v1h-28zM72 85h2v1h-2zM76 85h2v1h-2zM82 85h56v1h-56zM142 85h2v1h-2zM146 85h2v1h-2zM152 85h28v1h-28zM184 85h2v1h-2zM188 85h2v1h-2zM194 85h28v1h-28zM226 85h2v1h-2zM230 85h2v1h-2zM278 85h28v1h-28zM310 85h2v1h-2zM314 85h2v1h-2zM320 85h98v1h-98zM422 85h2v1h-2zM426 85h2v1h-2zM432 85h28v1h-28zM464 85h2v1h-2zM468 85h2v1h-2zM474 85h28v1h-28zM506 85h2v1h-2zM510 85h2v1h-2zM558 85h28v1h-28zM590 85h2v1h-2zM594 85h2v1h-2zM40 86h28v1h-28zM72 86h2v1h-2zM76 86h2v1h-2zM82 86h56v1h-56zM142 86h2v1h-2zM146 86h2v1h-2zM152 86h28v1h-28zM184 86h2v1h-2zM188 86h2v1h-2zM194 86h28v1h-28zM226 86h2v1h-2zM230 86h2v1h-2zM278 86h28v1h-28zM310 86h2v1h-2zM314 86h2v1h-2zM320 86h98v1h-98zM422 86h2v1h-2zM426 86h2v1h-2zM432 86h28v1h-28zM464 86h2v1h-2zM468 86h2v1h-2zM474 86h28v1h-28zM506 86h2v1h-2zM510 86h2v1h-2zM558 86h28v1h-28zM590 86h2v1h-2zM594 86h2v1h-2zM40 87h28v1h-28zM72 87h2v1h-2zM76 87h2v1h-2zM82 87h56v1h-56zM142 87h2v1h-2zM146 87h2v1h-2zM152 87h28v1h-28zM184 87h2v1h-2zM188 87h2v1h-2zM194 87h28v1h-28zM226 87h2v1h-2zM230 87h2v1h-2zM278 87h28v1h-28zM310 87h2v1h-2zM314 87h2v1h-2zM320 87h98v1h-98zM422 87h2v1h-2zM426 87h2v1h-2zM432 87h28v1h-28zM464 87h2v1h-2zM468 87h2v1h-2zM474 87h28v1h-28zM506 87h2v1h-2zM510 87h2v1h-2zM558 87h28v1h-28zM590 87h2v1h-2zM594 87h2v1h-2zM40 88h28v1h-28zM72 88h2v1h-2zM76 88h2v1h-2zM82 88h56v1h-56zM142 88h2v1h-2zM146 88h2v1h-2zM152 88h28v1h-28zM184 88h2v1h-2zM188 88h2v1h-2zM194 88h28v1h-28zM226 88h2v1h-2zM230 88h2v1h-2zM278 88h28v1h-28zM310 88h2v1h-2zM314 88h2v1h-2zM320 88h98v1h-98zM422 88h2v1h-2zM426 88h2v1h-2zM432 88h28v1h-28zM464 88h2v1h-2zM468 88h2v1h-2zM474 88h28v1h-28zM506 88h2v1h-2zM510 88h2v1h-2zM558 88h28v1h-28zM590 88h2v1h-2zM594 88h2v1h-2zM40 89h28v1h-28zM72 89h2v1h-2zM76 89h2v1h-2zM82 89h56v1h-56zM142 89h2v1h-2zM146 89h2v1h-2zM152 89h28v1h-28zM184 89h2v1h-2zM188 89h2v1h-2zM194 89h28v1h-28zM226 89h2v1h-2zM230 89h2v1h-2zM278 89h28v1h-28zM310 89h2v1h-2zM314 89h2v1h-2zM320 89h98v1h-98zM422 89h2v1h-2zM426 89h2v1h-2zM432 89h28v1h-28zM464 89h2v1h-2zM468 89h2v1h-2zM474 89h28v1h-28zM506 89h2v1h-2zM510 89h2v1h-2zM558 89h28v1h-28zM590 89h2v1h-2zM594 89h2v1h-2zM40 90h28v1h-28zM72 90h2v1h-2zM76 90h2v1h-2zM82 90h56v1h-56zM142 90h2v1h-2zM146 90h2v1h-2zM152 90h28v1h-28zM184 90h2v1h-2zM188 90h2v1h-2zM194 90h28v1h-28zM226 90h2v1h-2zM230 90h2v1h-2zM278 90h28v1h-28zM310 90h2v1h-2zM314 90h2v1h-2zM320 90h98v1h-98zM422 90h2v1h-2zM426 90h2v1h-2zM432 90h28v1h-28zM464 90h2v1h-2zM468 90h2v1h-2zM474 90h28v1h-28zM506 90h2v1h-2zM510 90h2v1h-2zM558 90h28v1h-28zM590 90h2v1h-2zM594 90h2v1h-2zM40 91h28v1h-28zM72 91h2v1h-2zM76 91h2v1h-2zM82 91h56v1h-56zM142 91h2v1h-2zM146 91h2v1h-2zM152 91h28v1h-28zM184 91h2v1h-2zM188 91h2v1h-2zM194 91h28v1h-28zM226 91h2v1h-2zM230 91h2v1h-2zM278 91h28v1h-28zM310 91h2v1h-2zM314 91h2v1h-2zM320 91h98v1h-98zM422 91h2v1h-2zM426 91h2v1h-2zM432 91h28v1h-28zM464 91h2v1h-2zM468 91h2v1h-2zM474 91h28v1h-28zM506 91h2v1h-2zM510 91h2v1h-2zM558 91h28v1h-28zM590 91h2v1h-2zM594 91h2v1h-2zM40 92h28v1h-28zM72 92h2v1h-2zM76 92h2v1h-2zM82 92h56v1h-56zM142 92h2v1h-2zM146 92h2v1h-2zM152 92h28v1h-28zM184 92h2v1h-2zM188 92h2v1h-2zM194 92h28v1h-28zM226 92h2v1h-2zM230 92h2v1h-2zM278 92h28v1h-28zM310 92h2v1h-2zM314 92h2v1h-2zM320 92h98v1h-98zM422 92h2v1h-2zM426 92h2v1h-2zM432 92h28v1h-28zM464 92h2v1h-2zM468 92h2v1h-2zM474 92h28v1h-28zM506 92h2v1h-2zM510 92h2v1h-2zM558 92h28v1h-28zM590 92h2v1h-2zM594 92h2v1h-2zM40 93h28v1h-28zM72 93h2v1h-2zM76 93h2v1h-2zM82 93h56v1h-56zM142 93h2v1h-2zM146 93h2v1h-2zM152 93h28v1h-28zM184 93h2v1h-2zM188 93h2v1h-2zM194 93h28v1h-28zM226 93h2v1h-2zM230 93h2v1h-2zM278 93h28v1h-28zM310 93h2v1h-2zM314 93h2v1h-2zM320 93h98v1h-98zM422 93h2v1h-2zM426 93h2v1h-2zM432 93h28v1h-28zM464 93h2v1h-2zM468 93h2v1h-2zM474 93h28v1h-28zM506 93h2v1h-2zM510 93h2v1h-2zM558 93h28v1h-28zM590 93h2v1h-2zM594 93h2v1h-2zM40 94h28v1h-28zM72 94h2v1h-2zM76 94h2v1h-2zM82 94h56v1h-56zM142 94h2v1h-2zM146 94h2v1h-2zM152 94h28v1h-28zM184 94h2v1h-2zM188 94h2v1h-2zM194 94h28v1h-28zM226 94h2v1h-2zM230 94h2v1h-2zM278 94h28v1h-28zM310 94h2v1h-2zM314 94h2v1h-2zM320 94h98v1h-98zM422 94h2v1h-2zM426 94h2v1h-2zM432 94h28v1h-28zM464 94h2v1h-2zM468 94h2v1h-2zM474 94h28v1h-28zM506 94h2v1h-2zM510 94h2v1h-2zM558 94h28v1h-28zM590 94h2v1h-2zM594 94h2v1h-2zM40 95h28v1h-28zM72 95h2v1h-2zM76 95h2v1h-2zM82 95h56v1h-56zM142 95h2v1h-2zM146 95h2v1h-2zM152 95h28v1h-28zM184 95h2v1h-2zM188 95h2v1h-2zM194 95h28v1h-28zM226 95h2v1h-2zM230 95h2v1h-2zM278 95h28v1h-28zM310 95h2v1h-2zM314 95h2v1h-2zM320 95h98v1h-98zM422 95h2v1h-2zM426 95h2v1h-2zM432 95h28v1h-28zM464 95h2v1h-2zM468 95h2v1h-2zM474 95h28v1h-28zM506 95h2v1h-2zM510 95h2v1h-2zM558 95h28v1h-28zM590 95h2v1h-2zM594 95h2v1h-2zM40 96h28v1h-28zM72 96h2v1h-2zM76 96h2v1h-2zM86 96h2v1h-2zM90 96h2v1h-2zM96 96h28v1h-28zM142 96h2v1h-2zM146 96h2v1h-2zM152 96h28v1h-28zM184 96h2v1h-2zM188 96h2v1h-2zM194 96h28v1h-28zM226 96h2v1h-2zM230 96h2v1h-2zM278 96h28v1h-28zM310 96h2v1h-2zM314 96h2v1h-2zM324 96h2v1h-2zM328 96h2v1h-2zM390 96h28v1h-28zM422 96h2v1h-2zM426 96h2v1h-2zM432 96h28v1h-28zM464 96h2v1h-2zM468 96h2v1h-2zM474 96h28v1h-28zM506 96h2v1h-2zM510 96h2v1h-2zM558 96h28v1h-28zM590 96h2v1h-2zM594 96h2v1h-2zM40 97h28v1h-28zM72 97h2v1h-2zM76 97h2v1h-2zM86 97h2v1h-2zM90 97h2v1h-2zM96 97h28v1h-28zM142 97h2v1h-2zM146 97h2v1h-2zM152 97h28v1h-28zM184 97h2v1h-2zM188 97h2v1h-2zM194 97h28v1h-28zM226 97h2v1h-2zM230 97h2v1h-2zM278 97h28v1h-28zM310 97h2v1h-2zM314 97h2v1h-2zM324 97h2v1h-2zM328 97h2v1h-2zM390 97h28v1h-28zM422 97h2v1h-2zM426 97h2v1h-2zM432 97h28v1h-28zM464 97h2v1h-2zM468 97h2v1h-2zM474 97h28v1h-28zM506 97h2v1h-2zM510 97h2v1h-2zM558 97h28v1h-28zM590 97h2v1h-2zM594 97h2v1h-2zM40 98h28v1h-28zM72 98h2v1h-2zM76 98h2v1h-2zM86 98h2v1h-2zM90 98h2v1h-2zM96 98h28v1h-28zM142 98h2v1h-2zM146 98h2v1h-2zM152 98h28v1h-28zM184 98h2v1h-2zM188 98h2v1h-2zM194 98h28v1h-28zM226 98h2v1h-2zM230 98h2v1h-2zM278 98h28v1h-28zM310 98h2v1h-2zM314 98h2v1h-2zM324 98h2v1h-2zM328 98h2v1h-2zM390 98h28v1h-28zM422 98h2v1h-2zM426 98h2v1h-2zM432 98h28v1h-28zM464 98h2v1h-2zM468 98h2v1h-2zM474 98h28v1h-28zM506 98h2v1h-2zM510 98h2v1h-2zM558 98h28v1h-28zM590 98h2v1h-2zM594 98h2v1h-2zM40 99h28v1h-28zM72 99h2v1h-2zM76 99h2v1h-2zM86 99h2v1h-2zM90 99h2v1h-2zM96 99h28v1h-28zM142 99h2v1h-2zM146 99h2v1h-2zM152 99h28v1h-28zM184 99h2v1h-2zM188 99h2v1h-2zM194 99h28v1h-28zM226 99h2v1h-2zM230 99h2v1h-2zM278 99h28v1h-28zM310 99h2v1h-2zM314 99h2v1h-2zM324 99h2v1h-2zM328 99h2v1h-2zM390 99h28v1h-28zM422 99h2v1h-2zM426 99h2v1h-2zM432 99h28v1h-28zM464 99h2v1h-2zM468 99h2v1h-2zM474 99h28v1h-28zM506 99h2v1h-2zM510 99h2v1h-2zM558 99h28v1h-28zM590 99h2v1h-2zM594 99h2v1h-2zM40 100h28v1h-28zM72 100h2v1h-2zM76 100h2v1h-2zM86 100h2v1h-2zM90 100h2v1h-2zM96 100h28v1h-28zM142 100h2v1h-2zM146 100h2v1h-2zM152 100h28v1h-28zM184 100h2v1h-2zM188 100h2v1h-2zM194 100h28v1h-28zM226 100h2v1h-2zM230 100h2v1h-2zM278 100h28v1h-28zM310 100h2v1h-2zM314 100h2v1h-2zM324 100h2v1h-2zM328 100h2v1h-2zM390 100h28v1h-28zM422 100h2v1h-2zM426 100h2v1h-2zM432 100h28v1h-28zM464 100h2v1h-2zM468 100h2v1h-2zM474 100h28v1h-28zM506 100h2v1h-2zM510 100h2v1h-2zM558 100h28v1h-28zM590 100h2v1h-2zM594 100h2v1h-2zM40 101h28v1h-28zM72 101h2v1h-2zM76 101h2v1h-2zM86 101h2v1h-2zM90 101h2v1h-2zM96 101h28v1h-28zM142 101h2v1h-2zM146 101h2v1h-2zM152 101h28v1h-28zM184 101h2v1h-2zM188 101h2v1h-2zM194 101h28v1h-28zM226 101h2v1h-2zM230 101h2v1h-2zM278 101h28v1h-28zM310 101h2v1h-2zM314 101h2v1h-2zM324 101h2v1h-2zM328 101h2v1h-2zM390 101h28v1h-28zM422 101h2v1h-2zM426 101h2v1h-2zM432 101h28v1h-28zM464 101h2v1h-2zM468 101h2v1h-2zM474 101h28v1h-28zM506 101h2v1h-2zM510 101h2v1h-2zM558 101h28v1h-28zM590 101h2v1h-2zM594 101h2v1h-2zM40 102h28v1h-28zM72 102h2v1h-2zM76 102h2v1h-2zM86 102h2v1h-2zM90 102h2v1h-2zM96 102h28v1h-28zM142 102h2v1h-2zM146 102h2v1h-2zM152 102h28v1h-28zM184 102h2v1h-2zM188 102h2v1h-2zM194 102h28v1h-28zM226 102h2v1h-2zM230 102h2v1h-2zM278 102h28v1h-28zM310 102h2v1h-2zM314 102h2v1h-2zM324 102h2v1h-2zM328 102h2v1h-2zM390 102h28v1h-28zM422 102h2v1h-2zM426 102h2v1h-2zM432 102h28v1h-28zM464 102h2v1h-2zM468 102h2v1h-2zM474 102h28v1h-28zM506 102h2v1h-2zM510 102h2v1h-2zM558 102h28v1h-28zM590 102h2v1h-2zM594 102h2v1h-2zM40 103h28v1h-28zM72 103h2v1h-2zM76 103h2v1h-2zM86 103h2v1h-2zM90 103h2v1h-2zM96 103h28v1h-28zM142 103h2v1h-2zM146 103h2v1h-2zM152 103h28v1h-28zM184 103h2v1h-2zM188 103h2v1h-2zM194 103h28v1h-28zM226 103h2v1h-2zM230 103h2v1h-2zM278 103h28v1h-28zM310 103h2v1h-2zM314 103h2v1h-2zM324 103h2v1h-2zM328 103h2v1h-2zM390 103h28v1h-28zM422 103h2v1h-2zM426 103h2v1h-2zM432 103h28v1h-28zM464 103h2v1h-2zM468 103h2v1h-2zM474 103h28v1h-28zM506 103h2v1h-2zM510 103h2v1h-2zM558 103h28v1h-28zM590 103h2v1h-2zM594 103h2v1h-2zM40 104h28v1h-28zM72 104h2v1h-2zM76 104h2v1h-2zM86 104h2v1h-2zM90 104h2v1h-2zM96 104h28v1h-28zM142 104h2v1h-2zM146 104h2v1h-2zM152 104h28v1h-28zM184 104h2v1h-2zM188 104h2v1h-2zM194 104h28v1h-28zM226 104h2v1h-2zM230 104h2v1h-2zM278 104h28v1h-28zM310 104h2v1h-2zM314 104h2v1h-2zM324 104h2v1h-2zM328 104h2v1h-2zM390 104h28v1h-28zM422 104h2v1h-2zM426 104h2v1h-2zM432 104h28v1h-28zM464 104h2v1h-2zM468 104h2v1h-2zM474 104h28v1h-28zM506 104h2v1h-2zM510 104h2v1h-2zM558 104h28v1h-28zM590 104h2v1h-2zM594 104h2v1h-2zM40 105h28v1h-28zM72 105h2v1h-2zM76 105h2v1h-2zM86 105h2v1h-2zM90 105h2v1h-2zM96 105h28v1h-28zM142 105h2v1h-2zM146 105h2v1h-2zM152 105h28v1h-28zM184 105h2v1h-2zM188 105h2v1h-2zM194 105h28v1h-28zM226 105h2v1h-2zM230 105h2v1h-2zM278 105h28v1h-28zM310 105h2v1h-2zM314 105h2v1h-2zM324 105h2v1h-2zM328 105h2v1h-2zM390 105h28v1h-28zM422 105h2v1h-2zM426 105h2v1h-2zM432 105h28v1h-28zM464 105h2v1h-2zM468 105h2v1h-2zM474 105h28v1h-28zM506 105h2v1h-2zM510 105h2v1h-2zM558 105h28v1h-28zM590 105h2v1h-2zM594 105h2v1h-2zM40 106h28v1h-28zM72 106h2v1h-2zM76 106h2v1h-2zM86 106h2v1h-2zM90 106h2v1h-2zM96 106h28v1h-28zM142 106h2v1h-2zM146 106h2v1h-2zM152 106h28v1h-28zM184 106h2v1h-2zM188 106h2v1h-2zM194 106h28v1h-28zM226 106h2v1h-2zM230 106h2v1h-2zM278 106h28v1h-28zM310 106h2v1h-2zM314 106h2v1h-2zM324 106h2v1h-2zM328 106h2v1h-2zM390 106h28v1h-28zM422 106h2v1h-2zM426 106h2v1h-2zM432 106h28v1h-28zM464 106h2v1h-2zM468 106h2v1h-2zM474 106h28v1h-28zM506 106h2v1h-2zM510 106h2v1h-2zM558 106h28v1h-28zM590 106h2v1h-2zM594 106h2v1h-2zM40 107h28v1h-28zM72 107h2v1h-2zM76 107h2v1h-2zM86 107h2v1h-2zM90 107h34v1h-34zM128 107h16v1h-16zM146 107h2v1h-2zM152 107h28v1h-28zM184 107h2v1h-2zM188 107h2v1h-2zM194 107h28v1h-28zM226 107h2v1h-2zM230 107h2v1h-2zM278 107h28v1h-28zM310 107h2v1h-2zM314 107h2v1h-2zM324 107h2v1h-2zM328 107h90v1h-90zM422 107h2v1h-2zM426 107h2v1h-2zM432 107h28v1h-28zM464 107h2v1h-2zM468 107h2v1h-2zM474 107h28v1h-28zM506 107h2v1h-2zM510 107h2v1h-2zM558 107h28v1h-28zM590 107h2v1h-2zM594 107h2v1h-2zM40 108h28v1h-28zM72 108h2v1h-2zM76 108h2v1h-2zM86 108h2v1h-2zM90 108h34v1h-34zM128 108h16v1h-16zM146 108h2v1h-2zM152 108h28v1h-28zM184 108h2v1h-2zM188 108h2v1h-2zM194 108h28v1h-28zM226 108h2v1h-2zM230 108h2v1h-2zM278 108h28v1h-28zM310 108h2v1h-2zM314 108h2v1h-2zM324 108h2v1h-2zM328 108h90v1h-90zM422 108h2v1h-2zM426 108h2v1h-2zM432 108h28v1h-28zM464 108h2v1h-2zM468 108h2v1h-2zM474 108h28v1h-28zM506 108h2v1h-2zM510 108h2v1h-2zM558 108h28v1h-28zM590 108h2v1h-2zM594 108h2v1h-2zM40 109h28v1h-28zM72 109h2v1h-2zM76 109h2v1h-2zM86 109h2v1h-2zM96 109h28v1h-28zM128 109h2v1h-2zM146 109h2v1h-2zM152 109h28v1h-28zM184 109h2v1h-2zM188 109h2v1h-2zM194 109h28v1h-28zM226 109h2v1h-2zM230 109h2v1h-2zM278 109h28v1h-28zM310 109h2v1h-2zM314 109h2v1h-2zM324 109h2v1h-2zM390 109h28v1h-28zM422 109h2v1h-2zM426 109h2v1h-2zM432 109h28v1h-28zM464 109h2v1h-2zM468 109h2v1h-2zM474 109h28v1h-28zM506 109h2v1h-2zM510 109h2v1h-2zM558 109h28v1h-28zM590 109h2v1h-2zM594 109h2v1h-2zM40 110h28v1h-28zM72 110h2v1h-2zM76 110h2v1h-2zM86 110h2v1h-2zM96 110h28v1h-28zM128 110h2v1h-2zM146 110h2v1h-2zM152 110h28v1h-28zM184 110h2v1h-2zM188 110h2v1h-2zM194 110h28v1h-28zM226 110h2v1h-2zM230 110h2v1h-2zM278 110h28v1h-28zM310 110h2v1h-2zM314 110h2v1h-2zM324 110h2v1h-2zM390 110h28v1h-28zM422 110h2v1h-2zM426 110h2v1h-2zM432 110h28v1h-28zM464 110h2v1h-2zM468 110h2v1h-2zM474 110h28v1h-28zM506 110h2v1h-2zM510 110h2v1h-2zM558 110h28v1h-28zM590 110h2v1h-2zM594 110h2v1h-2zM40 111h28v1h-28zM72 111h2v1h-2zM76 111h2v1h-2zM86 111h38v1h-38zM128 111h2v1h-2zM132 111h16v1h-16zM152 111h28v1h-28zM184 111h2v1h-2zM188 111h2v1h-2zM194 111h28v1h-28zM226 111h2v1h-2zM230 111h2v1h-2zM278 111h28v1h-28zM310 111h2v1h-2zM314 111h2v1h-2zM324 111h94v1h-94zM422 111h2v1h-2zM426 111h2v1h-2zM432 111h28v1h-28zM464 111h2v1h-2zM468 111h2v1h-2zM474 111h28v1h-28zM506 111h2v1h-2zM510 111h2v1h-2zM558 111h28v1h-28zM590 111h2v1h-2zM594 111h2v1h-2zM40 112h28v1h-28zM72 112h2v1h-2zM76 112h2v1h-2zM86 112h38v1h-38zM128 112h2v1h-2zM132 112h16v1h-16zM152 112h28v1h-28zM184 112h2v1h-2zM188 112h2v1h-2zM194 112h28v1h-28zM226 112h2v1h-2zM230 112h2v1h-2zM278 112h28v1h-28zM310 112h2v1h-2zM314 112h2v1h-2zM324 112h94v1h-94zM422 112h2v1h-2zM426 112h2v1h-2zM432 112h28v1h-28zM464 112h2v1h-2zM468 112h2v1h-2zM474 112h28v1h-28zM506 112h2v1h-2zM510 112h2v1h-2zM558 112h28v1h-28zM590 112h2v1h-2zM594 112h2v1h-2zM40 113h28v1h-28zM72 113h2v1h-2zM76 113h2v1h-2zM96 113h28v1h-28zM128 113h2v1h-2zM132 113h2v1h-2zM152 113h28v1h-28zM184 113h2v1h-2zM188 113h2v1h-2zM194 113h28v1h-28zM226 113h2v1h-2zM230 113h2v1h-2zM278 113h28v1h-28zM310 113h2v1h-2zM314 113h2v1h-2zM390 113h28v1h-28zM422 113h2v1h-2zM426 113h2v1h-2zM432 113h28v1h-28zM464 113h2v1h-2zM468 113h2v1h-2zM474 113h28v1h-28zM506 113h2v1h-2zM510 113h2v1h-2zM558 113h28v1h-28zM590 113h2v1h-2zM594 113h2v1h-2zM40 114h28v1h-28zM72 114h2v1h-2zM76 114h2v1h-2zM96 114h28v1h-28zM128 114h2v1h-2zM132 114h2v1h-2zM152 114h28v1h-28zM184 114h2v1h-2zM188 114h2v1h-2zM194 114h28v1h-28zM226 114h2v1h-2zM230 114h2v1h-2zM278 114h28v1h-28zM310 114h2v1h-2zM314 114h2v1h-2zM390 114h28v1h-28zM422 114h2v1h-2zM426 114h2v1h-2zM432 114h28v1h-28zM464 114h2v1h-2zM468 114h2v1h-2zM474 114h28v1h-28zM506 114h2v1h-2zM510 114h2v1h-2zM558 114h28v1h-28zM590 114h2v1h-2zM594 114h2v1h-2zM40 115h28v1h-28zM72 115h2v1h-2zM76 115h2v1h-2zM96 115h28v1h-28zM128 115h2v1h-2zM132 115h2v1h-2zM152 115h28v1h-28zM184 115h2v1h-2zM188 115h2v1h-2zM194 115h28v1h-28zM226 115h2v1h-2zM230 115h2v1h-2zM278 115h28v1h-28zM310 115h2v1h-2zM314 115h2v1h-2zM390 115h28v1h-28zM422 115h2v1h-2zM426 115h2v1h-2zM432 115h28v1h-28zM464 115h2v1h-2zM468 115h2v1h-2zM474 115h28v1h-28zM506 115h2v1h-2zM510 115h2v1h-2zM558 115h28v1h-28zM590 115h2v1h-2zM594 115h2v1h-2zM40 116h28v1h-28zM72 116h2v1h-2zM76 116h2v1h-2zM96 116h28v1h-28zM128 116h2v1h-2zM132 116h2v1h-2zM152 116h28v1h-28zM184 116h2v1h-2zM188 116h2v1h-2zM194 116h28v1h-28zM226 116h2v1h-2zM230 116h2v1h-2zM278 116h28v1h-28zM310 116h2v1h-2zM314 116h2v1h-2zM390 116h28v1h-28zM422 116h2v1h-2zM426 116h2v1h-2zM432 116h28v1h-28zM464 116h2v1h-2zM468 116h2v1h-2zM474 116h28v1h-28zM506 116h2v1h-2zM510 116h2v1h-2zM558 116h28v1h-28zM590 116h2v1h-2zM594 116h2v1h-2zM40 117h28v1h-28zM72 117h2v1h-2zM76 117h2v1h-2zM96 117h28v1h-28zM128 117h2v1h-2zM132 117h2v1h-2zM152 117h28v1h-28zM184 117h2v1h-2zM188 117h2v1h-2zM194 117h28v1h-28zM226 117h2v1h-2zM230 117h2v1h-2zM278 117h28v1h-28zM310 117h2v1h-2zM314 117h2v1h-2zM390 117h28v1h-28zM422 117h2v1h-2zM426 117h2v1h-2zM432 117h28v1h-28zM464 117h2v1h-2zM468 117h2v1h-2zM474 117h28v1h-28zM506 117h2v1h-2zM510 117h2v1h-2zM558 117h28v1h-28zM590 117h2v1h-2zM594 117h2v1h-2zM40 118h28v1h-28zM72 118h2v1h-2zM76 118h2v1h-2zM96 118h28v1h-28zM128 118h2v1h-2zM132 118h2v1h-2zM152 118h28v1h-28zM184 118h2v1h-2zM188 118h2v1h-2zM194 118h28v1h-28zM226 118h2v1h-2zM230 118h2v1h-2zM278 118h28v1h-28zM310 118h2v1h-2zM314 118h2v1h-2zM390 118h28v1h-28zM422 118h2v1h-2zM426 118h2v1h-2zM432 118h28v1h-28zM464 118h2v1h-2zM468 118h2v1h-2zM474 118h28v1h-28zM506 118h2v1h-2zM510 118h2v1h-2zM558 118h28v1h-28zM590 118h2v1h-2zM594 118h2v1h-2zM40 119h28v1h-28zM72 119h2v1h-2zM76 119h2v1h-2zM96 119h28v1h-28zM128 119h2v1h-2zM132 119h2v1h-2zM152 119h28v1h-28zM184 119h2v1h-2zM188 119h2v1h-2zM194 119h28v1h-28zM226 119h2v1h-2zM230 119h2v1h-2zM278 119h28v1h-28zM310 119h2v1h-2zM314 119h2v1h-2zM390 119h28v1h-28zM422 119h2v1h-2zM426 119h2v1h-2zM432 119h28v1h-28zM464 119h2v1h-2zM468 119h2v1h-2zM474 119h28v1h-28zM506 119h2v1h-2zM510 119h2v1h-2zM558 119h28v1h-28zM590 119h2v1h-2zM594 119h2v1h-2zM40 120h28v1h-28zM72 120h2v1h-2zM76 120h2v1h-2zM96 120h28v1h-28zM128 120h2v1h-2zM132 120h2v1h-2zM152 120h28v1h-28zM184 120h2v1h-2zM188 120h2v1h-2zM194 120h28v1h-28zM226 120h2v1h-2zM230 120h2v1h-2zM278 120h28v1h-28zM310 120h2v1h-2zM314 120h2v1h-2zM390 120h28v1h-28zM422 120h2v1h-2zM426 120h2v1h-2zM432 120h28v1h-28zM464 120h2v1h-2zM468 120h2v1h-2zM474 120h28v1h-28zM506 120h2v1h-2zM510 120h2v1h-2zM558 120h28v1h-28zM590 120h2v1h-2zM594 120h2v1h-2zM40 121h28v1h-28zM72 121h2v1h-2zM76 121h2v1h-2zM96 121h28v1h-28zM128 121h2v1h-2zM132 121h2v1h-2zM152 121h28v1h-28zM184 121h2v1h-2zM188 121h2v1h-2zM194 121h28v1h-28zM226 121h2v1h-2zM230 121h2v1h-2zM278 121h28v1h-28zM310 121h2v1h-2zM314 121h2v1h-2zM390 121h28v1h-28zM422 121h2v1h-2zM426 121h2v1h-2zM432 121h28v1h-28zM464 121h2v1h-2zM468 121h2v1h-2zM474 121h28v1h-28zM506 121h2v1h-2zM510 121h2v1h-2zM558 121h28v1h-28zM590 121h2v1h-2zM594 121h2v1h-2zM40 122h28v1h-28zM72 122h2v1h-2zM76 122h2v1h-2zM96 122h28v1h-28zM128 122h2v1h-2zM132 122h2v1h-2zM152 122h28v1h-28zM184 122h2v1h-2zM188 122h2v1h-2zM194 122h28v1h-28zM226 122h2v1h-2zM230 122h2v1h-2zM278 122h28v1h-28zM310 122h2v1h-2zM314 122h2v1h-2zM390 122h28v1h-28zM422 122h2v1h-2zM426 122h2v1h-2zM432 122h28v1h-28zM464 122h2v1h-2zM468 122h2v1h-2zM474 122h28v1h-28zM506 122h2v1h-2zM510 122h2v1h-2zM558 122h28v1h-28zM590 122h2v1h-2zM594 122h2v1h-2zM40 123h28v1h-28zM72 123h2v1h-2zM76 123h2v1h-2zM96 123h28v1h-28zM128 123h2v1h-2zM132 123h2v1h-2zM152 123h28v1h-28zM184 123h2v1h-2zM188 123h2v1h-2zM194 123h28v1h-28zM226 123h2v1h-2zM230 123h2v1h-2zM278 123h28v1h-28zM310 123h2v1h-2zM314 123h2v1h-2zM390 123h28v1h-28zM422 123h2v1h-2zM426 123h2v1h-2zM432 123h28v1h-28zM464 123h2v1h-2zM468 123h2v1h-2zM474 123h28v1h-28zM506 123h2v1h-2zM510 123h2v1h-2zM558 123h28v1h-28zM590 123h2v1h-2zM594 123h2v1h-2zM40 124h28v1h-28zM72 124h2v1h-2zM76 124h2v1h-2zM100 124h2v1h-2zM104 124h2v1h-2zM128 124h2v1h-2zM132 124h2v1h-2zM152 124h28v1h-28zM184 124h2v1h-2zM188 124h2v1h-2zM198 124h2v1h-2zM202 124h2v1h-2zM208 124h84v1h-84zM310 124h2v1h-2zM314 124h2v1h-2zM320 124h98v1h-98zM422 124h2v1h-2zM426 124h2v1h-2zM432 124h28v1h-28zM464 124h2v1h-2zM468 124h2v1h-2zM478 124h2v1h-2zM482 124h2v1h-2zM488 124h84v1h-84zM590 124h2v1h-2zM594 124h2v1h-2zM40 125h28v1h-28zM72 125h2v1h-2zM76 125h2v1h-2zM100 125h2v1h-2zM104 125h2v1h-2zM128 125h2v1h-2zM132 125h2v1h-2zM152 125h28v1h-28zM184 125h2v1h-2zM188 125h2v1h-2zM198 125h2v1h-2zM202 125h2v1h-2zM208 125h84v1h-84zM310 125h2v1h-2zM314 125h2v1h-2zM320 125h98v1h-98zM422 125h2v1h-2zM426 125h2v1h-2zM432 125h28v1h-28zM464 125h2v1h-2zM468 125h2v1h-2zM478 125h2v1h-2zM482 125h2v1h-2zM488 125h84v1h-84zM590 125h2v1h-2zM594 125h2v1h-2zM40 126h28v1h-28zM72 126h2v1h-2zM76 126h2v1h-2zM100 126h2v1h-2zM104 126h2v1h-2zM128 126h2v1h-2zM132 126h2v1h-2zM152 126h28v1h-28zM184 126h2v1h-2zM188 126h2v1h-2zM198 126h2v1h-2zM202 126h2v1h-2zM208 126h84v1h-84zM310 126h2v1h-2zM314 126h2v1h-2zM320 126h98v1h-98zM422 126h2v1h-2zM426 126h2v1h-2zM432 126h28v1h-28zM464 126h2v1h-2zM468 126h2v1h-2zM478 126h2v1h-2zM482 126h2v1h-2zM488 126h84v1h-84zM590 126h2v1h-2zM594 126h2v1h-2zM40 127h28v1h-28zM72 127h2v1h-2zM76 127h2v1h-2zM100 127h2v1h-2zM104 127h2v1h-2zM128 127h2v1h-2zM132 127h2v1h-2zM152 127h28v1h-28zM184 127h2v1h-2zM188 127h2v1h-2zM198 127h2v1h-2zM202 127h2v1h-2zM208 127h84v1h-84zM310 127h2v1h-2zM314 127h2v1h-2zM320 127h98v1h-98zM422 127h2v1h-2zM426 127h2v1h-2zM432 127h28v1h-28zM464 127h2v1h-2zM468 127h2v1h-2zM478 127h2v1h-2zM482 127h2v1h-2zM488 127h84v1h-84zM590 127h2v1h-2zM594 127h2v1h-2zM40 128h28v1h-28zM72 128h2v1h-2zM76 128h2v1h-2zM100 128h2v1h-2zM104 128h2v1h-2zM128 128h2v1h-2zM132 128h2v1h-2zM152 128h28v1h-28zM184 128h2v1h-2zM188 128h2v1h-2zM198 128h2v1h-2zM202 128h2v1h-2zM208 128h84v1h-84zM310 128h2v1h-2zM314 128h2v1h-2zM320 128h98v1h-98zM422 128h2v1h-2zM426 128h2v1h-2zM432 128h28v1h-28zM464 128h2v1h-2zM468 128h2v1h-2zM478 128h2v1h-2zM482 128h2v1h-2zM488 128h84v1h-84zM590 128h2v1h-2zM594 128h2v1h-2zM40 129h28v1h-28zM72 129h2v1h-2zM76 129h2v1h-2zM100 129h2v1h-2zM104 129h2v1h-2zM128 129h2v1h-2zM132 129h2v1h-2zM152 129h28v1h-28zM184 129h2v1h-2zM188 129h2v1h-2zM198 129h2v1h-2zM202 129h2v1h-2zM208 129h84v1h-84zM310 129h2v1h-2zM314 129h2v1h-2zM320 129h98v1h-98zM422 129h2v1h-2zM426 129h2v1h-2zM432 129h28v1h-28zM464 129h2v1h-2zM468 129h2v1h-2zM478 129h2v1h-2zM482 129h2v1h-2zM488 129h84v1h-84zM590 129h2v1h-2zM594 129h2v1h-2zM40 130h28v1h-28zM72 130h2v1h-2zM76 130h2v1h-2zM100 130h2v1h-2zM104 130h2v1h-2zM128 130h2v1h-2zM132 130h2v1h-2zM152 130h28v1h-28zM184 130h2v1h-2zM188 130h2v1h-2zM198 130h2v1h-2zM202 130h2v1h-2zM208 130h84v1h-84zM310 130h2v1h-2zM314 130h2v1h-2zM320 130h98v1h-98zM422 130h2v1h-2zM426 130h2v1h-2zM432 130h28v1h-28zM464 130h2v1h-2zM468 130h2v1h-2zM478 130h2v1h-2zM482 130h2v1h-2zM488 130h84v1h-84zM590 130h2v1h-2zM594 130h2v1h-2zM40 131h28v1h-28zM72 131h2v1h-2zM76 131h2v1h-2zM100 131h2v1h-2zM104 131h2v1h-2zM128 131h2v1h-2zM132 131h2v1h-2zM152 131h28v1h-28zM184 131h2v1h-2zM188 131h2v1h-2zM198 131h2v1h-2zM202 131h2v1h-2zM208 131h84v1h-84zM310 131h2v1h-2zM314 131h2v1h-2zM320 131h98v1h-98zM422 131h2v1h-2zM426 131h2v1h-2zM432 131h28v1h-28zM464 131h2v1h-2zM468 131h2v1h-2zM478 131h2v1h-2zM482 131h2v1h-2zM488 131h84v1h-84zM590 131h2v1h-2zM594 131h2v1h-2zM40 132h28v1h-28zM72 132h2v1h-2zM76 132h2v1h-2zM100 132h2v1h-2zM104 132h2v1h-2zM128 132h2v1h-2zM132 132h2v1h-2zM152 132h28v1h-28zM184 132h2v1h-2zM188 132h2v1h-2zM198 132h2v1h-2zM202 132h2v1h-2zM208 132h84v1h-84zM310 132h2v1h-2zM314 132h2v1h-2zM320 132h98v1h-98zM422 132h2v1h-2zM426 132h2v1h-2zM432 132h28v1h-28zM464 132h2v1h-2zM468 132h2v1h-2zM478 132h2v1h-2zM482 132h2v1h-2zM488 132h84v1h-84zM590 132h2v1h-2zM594 132h2v1h-2zM40 133h28v1h-28zM72 133h2v1h-2zM76 133h2v1h-2zM100 133h2v1h-2zM104 133h2v1h-2zM128 133h2v1h-2zM132 133h2v1h-2zM152 133h28v1h-28zM184 133h2v1h-2zM188 133h2v1h-2zM198 133h2v1h-2zM202 133h2v1h-2zM208 133h84v1h-84zM310 133h2v1h-2zM314 133h2v1h-2zM320 133h98v1h-98zM422 133h2v1h-2zM426 133h2v1h-2zM432 133h28v1h-28zM464 133h2v1h-2zM468 133h2v1h-2zM478 133h2v1h-2zM482 133h2v1h-2zM488 133h84v1h-84zM590 133h2v1h-2zM594 133h2v1h-2zM40 134h28v1h-28zM72 134h2v1h-2zM76 134h2v1h-2zM100 134h2v1h-2zM104 134h2v1h-2zM128 134h2v1h-2zM132 134h2v1h-2zM152 134h28v1h-28zM184 134h2v1h-2zM188 134h2v1h-2zM198 134h2v1h-2zM202 134h2v1h-2zM208 134h84v1h-84zM310 134h2v1h-2zM314 134h2v1h-2zM320 134h98v1h-98zM422 134h2v1h-2zM426 134h2v1h-2zM432 134h28v1h-28zM464 134h2v1h-2zM468 134h2v1h-2zM478 134h2v1h-2zM482 134h2v1h-2zM488 134h84v1h-84zM590 134h2v1h-2zM594 134h2v1h-2zM40 135h28v1h-28zM72 135h2v1h-2zM76 135h2v1h-2zM100 135h2v1h-2zM104 135h26v1h-26zM132 135h2v1h-2zM152 135h28v1h-28zM184 135h2v1h-2zM188 135h2v1h-2zM198 135h2v1h-2zM202 135h90v1h-90zM296 135h16v1h-16zM314 135h2v1h-2zM320 135h98v1h-98zM422 135h2v1h-2zM426 135h2v1h-2zM432 135h28v1h-28zM464 135h2v1h-2zM468 135h2v1h-2zM478 135h2v1h-2zM482 135h90v1h-90zM576 135h16v1h-16zM594 135h2v1h-2zM40 136h28v1h-28zM72 136h2v1h-2zM76 136h2v1h-2zM100 136h2v1h-2zM104 136h26v1h-26zM132 136h2v1h-2zM152 136h28v1h-28zM184 136h2v1h-2zM188 136h2v1h-2zM198 136h2v1h-2zM202 136h90v1h-90zM296 136h16v1h-16zM314 136h2v1h-2zM320 136h98v1h-98zM422 136h2v1h-2zM426 136h2v1h-2zM432 136h28v1h-28zM464 136h2v1h-2zM468 136h2v1h-2zM478 136h2v1h-2zM482 136h90v1h-90zM576 136h16v1h-16zM594 136h2v1h-2zM40 137h28v1h-28zM72 137h2v1h-2zM76 137h2v1h-2zM100 137h2v1h-2zM132 137h2v1h-2zM152 137h28v1h-28zM184 137h2v1h-2zM188 137h2v1h-2zM198 137h2v1h-2zM208 137h84v1h-84zM296 137h2v1h-2zM314 137h2v1h-2zM320 137h98v1h-98zM422 137h2v1h-2zM426 137h2v1h-2zM432 137h28v1h-28zM464 137h2v1h-2zM468 137h2v1h-2zM478 137h2v1h-2zM488 137h84v1h-84zM576 137h2v1h-2zM594 137h2v1h-2zM40 138h28v1h-28zM72 138h2v1h-2zM76 138h2v1h-2zM100 138h2v1h-2zM132 138h2v1h-2zM152 138h28v1h-28zM184 138h2v1h-2zM188 138h2v1h-2zM198 138h2v1h-2zM208 138h84v1h-84zM296 138h2v1h-2zM314 138h2v1h-2zM320 138h98v1h-98zM422 138h2v1h-2zM426 138h2v1h-2zM432 138h28v1h-28zM464 138h2v1h-2zM468 138h2v1h-2zM478 138h2v1h-2zM488 138h84v1h-84zM576 138h2v1h-2zM594 138h2v1h-2zM40 139h28v1h-28zM72 139h2v1h-2zM76 139h2v1h-2zM100 139h34v1h-34zM152 139h28v1h-28zM184 139h2v1h-2zM188 139h2v1h-2zM198 139h94v1h-94zM296 139h2v1h-2zM300 139h16v1h-16zM320 139h98v1h-98zM422 139h2v1h-2zM426 139h2v1h-2zM432 139h28v1h-28zM464 139h2v1h-2zM468 139h2v1h-2zM478 139h94v1h-94zM576 139h2v1h-2zM580 139h16v1h-16zM40 140h28v1h-28zM72 140h2v1h-2zM76 140h2v1h-2zM100 140h34v1h-34zM152 140h28v1h-28zM184 140h2v1h-2zM188 140h2v1h-2zM198 140h94v1h-94zM296 140h2v1h-2zM300 140h16v1h-16zM320 140h98v1h-98zM422 140h2v1h-2zM426 140h2v1h-2zM432 140h28v1h-28zM464 140h2v1h-2zM468 140h2v1h-2zM478 140h94v1h-94zM576 140h2v1h-2zM580 140h16v1h-16zM40 141h28v1h-28zM72 141h2v1h-2zM76 141h2v1h-2zM152 141h28v1h-28zM184 141h2v1h-2zM188 141h2v1h-2zM208 141h84v1h-84zM296 141h2v1h-2zM300 141h2v1h-2zM320 141h98v1h-98zM422 141h2v1h-2zM426 141h2v1h-2zM432 141h28v1h-28zM464 141h2v1h-2zM468 141h2v1h-2zM488 141h84v1h-84zM576 141h2v1h-2zM580 141h2v1h-2zM40 142h28v1h-28zM72 142h2v1h-2zM76 142h2v1h-2zM152 142h28v1h-28zM184 142h2v1h-2zM188 142h2v1h-2zM208 142h84v1h-84zM296 142h2v1h-2zM300 142h2v1h-2zM320 142h98v1h-98zM422 142h2v1h-2zM426 142h2v1h-2zM432 142h28v1h-28zM464 142h2v1h-2zM468 142h2v1h-2zM488 142h84v1h-84zM576 142h2v1h-2zM580 142h2v1h-2zM40 143h28v1h-28zM72 143h2v1h-2zM76 143h2v1h-2zM152 143h28v1h-28zM184 143h2v1h-2zM188 143h2v1h-2zM208 143h84v1h-84zM296 143h2v1h-2zM300 143h2v1h-2zM320 143h98v1h-98zM422 143h2v1h-2zM426 143h2v1h-2zM432 143h28v1h-28zM464 143h2v1h-2zM468 143h2v1h-2zM488 143h84v1h-84zM576 143h2v1h-2zM580 143h2v1h-2zM40 144h28v1h-28zM72 144h2v1h-2zM76 144h2v1h-2zM152 144h28v1h-28zM184 144h2v1h-2zM188 144h2v1h-2zM208 144h84v1h-84zM296 144h2v1h-2zM300 144h2v1h-2zM320 144h98v1h-98zM422 144h2v1h-2zM426 144h2v1h-2zM432 144h28v1h-28zM464 144h2v1h-2zM468 144h2v1h-2zM488 144h84v1h-84zM576 144h2v1h-2zM580 144h2v1h-2zM40 145h28v1h-28zM72 145h2v1h-2zM76 145h2v1h-2zM152 145h28v1h-28zM184 145h2v1h-2zM188 145h2v1h-2zM208 145h84v1h-84zM296 145h2v1h-2zM300 145h2v1h-2zM320 145h98v1h-98zM422 145h2v1h-2zM426 145h2v1h-2zM432 145h28v1h-28zM464 145h2v1h-2zM468 145h2v1h-2zM488 145h84v1h-84zM576 145h2v1h-2zM580 145h2v1h-2zM40 146h28v1h-28zM72 146h2v1h-2zM76 146h2v1h-2zM152 146h28v1h-28zM184 146h2v1h-2zM188 146h2v1h-2zM208 146h84v1h-84zM296 146h2v1h-2zM300 146h2v1h-2zM320 146h98v1h-98zM422 146h2v1h-2zM426 146h2v1h-2zM432 146h28v1h-28zM464 146h2v1h-2zM468 146h2v1h-2zM488 146h84v1h-84zM576 146h2v1h-2zM580 146h2v1h-2zM40 147h28v1h-28zM72 147h2v1h-2zM76 147h2v1h-2zM152 147h28v1h-28zM184 147h2v1h-2zM188 147h2v1h-2zM208 147h84v1h-84zM296 147h2v1h-2zM300 147h2v1h-2zM320 147h98v1h-98zM422 147h2v1h-2zM426 147h2v1h-2zM432 147h28v1h-28zM464 147h2v1h-2zM468 147h2v1h-2zM488 147h84v1h-84zM576 147h2v1h-2zM580 147h2v1h-2zM40 148h28v1h-28zM72 148h2v1h-2zM76 148h2v1h-2zM152 148h28v1h-28zM184 148h2v1h-2zM188 148h2v1h-2zM208 148h84v1h-84zM296 148h2v1h-2zM300 148h2v1h-2zM320 148h98v1h-98zM422 148h2v1h-2zM426 148h2v1h-2zM432 148h28v1h-28zM464 148h2v1h-2zM468 148h2v1h-2zM488 148h84v1h-84zM576 148h2v1h-2zM580 148h2v1h-2zM40 149h28v1h-28zM72 149h2v1h-2zM76 149h2v1h-2zM152 149h28v1h-28zM184 149h2v1h-2zM188 149h2v1h-2zM208 149h84v1h-84zM296 149h2v1h-2zM300 149h2v1h-2zM320 149h98v1h-98zM422 149h2v1h-2zM426 149h2v1h-2zM432 149h28v1h-28zM464 149h2v1h-2zM468 149h2v1h-2zM488 149h84v1h-84zM576 149h2v1h-2zM580 149h2v1h-2zM40 150h28v1h-28zM72 150h2v1h-2zM76 150h2v1h-2zM152 150h28v1h-28zM184 150h2v1h-2zM188 150h2v1h-2zM208 150h84v1h-84zM296 150h2v1h-2zM300 150h2v1h-2zM320 150h98v1h-98zM422 150h2v1h-2zM426 150h2v1h-2zM432 150h28v1h-28zM464 150h2v1h-2zM468 150h2v1h-2zM488 150h84v1h-84zM576 150h2v1h-2zM580 150h2v1h-2zM40 151h28v1h-28zM72 151h2v1h-2zM76 151h2v1h-2zM152 151h28v1h-28zM184 151h2v1h-2zM188 151h2v1h-2zM208 151h84v1h-84zM296 151h2v1h-2zM300 151h2v1h-2zM320 151h98v1h-98zM422 151h2v1h-2zM426 151h2v1h-2zM432 151h28v1h-28zM464 151h2v1h-2zM468 151h2v1h-2zM488 151h84v1h-84zM576 151h2v1h-2zM580 151h2v1h-2z"/>
  <path fill="#767676" d="M44 152h2v1h-2zM48 152h2v1h-2zM72 152h2v1h-2zM76 152h2v1h-2zM156 152h2v1h-2zM160 152h2v1h-2zM184 152h2v1h-2zM188 152h2v1h-2zM212 152h2v1h-2zM216 152h2v1h-2zM296 152h2v1h-2zM300 152h2v1h-2zM324 152h2v1h-2zM328 152h2v1h-2zM422 152h2v1h-2zM426 152h2v1h-2zM436 152h2v1h-2zM440 152h2v1h-2zM464 152h2v1h-2zM468 152h2v1h-2zM492 152h2v1h-2zM496 152h2v1h-2zM576 152h2v1h-2zM580 152h2v1h-2zM44 153h2v1h-2zM48 153h2v1h-2zM72 153h2v1h-2zM76 153h2v1h-2zM156 153h2v1h-2zM160 153h2v1h-2zM184 153h2v1h-2zM188 153h2v1h-2zM212 153h2v1h-2zM216 153h2v1h-2zM296 153h2v1h-2zM300 153h2v1h-2zM324 153h2v1h-2zM328 153h2v1h-2zM422 153h2v1h-2zM426 153h2v1h-2zM436 153h2v1h-2zM440 153h2v1h-2zM464 153h2v1h-2zM468 153h2v1h-2zM492 153h2v1h-2zM496 153h2v1h-2zM576 153h2v1h-2zM580 153h2v1h-2zM44 154h2v1h-2zM48 154h2v1h-2zM72 154h2v1h-2zM76 154h2v1h-2zM156 154h2v1h-2zM160 154h2v1h-2zM184 154h2v1h-2zM188 154h2v1h-2zM212 154h2v1h-2zM216 154h2v1h-2zM296 154h2v1h-2zM300 154h2v1h-2zM324 154h2v1h-2zM328 154h2v1h-2zM422 154h2v1h-2zM426 154h2v1h-2zM436 154h2v1h-2zM440 154h2v1h-2zM464 154h2v1h-2zM468 154h2v1h-2zM492 154h2v1h-2zM496 154h2v1h-2zM576 154h2v1h-2zM580 154h2v1h-2zM44 155h2v1h-2zM48 155h2v1h-2zM72 155h2v1h-2zM76 155h2v1h-2zM156 155h2v1h-2zM160 155h2v1h-2zM184 155h2v1h-2zM188 155h2v1h-2zM212 155h2v1h-2zM216 155h2v1h-2zM296 155h2v1h-2zM300 155h2v1h-2zM324 155h2v1h-2zM328 155h2v1h-2zM422 155h2v1h-2zM426 155h2v1h-2zM436 155h2v1h-2zM440 155h2v1h-2zM464 155h2v1h-2zM468 155h2v1h-2zM492 155h2v1h-2zM496 155h2v1h-2zM576 155h2v1h-2zM580 155h2v1h-2zM44 156h2v1h-2zM48 156h2v1h-2zM72 156h2v1h-2zM76 156h2v1h-2zM156 156h2v1h-2zM160 156h2v1h-2zM184 156h2v1h-2zM188 156h2v1h-2zM212 156h2v1h-2zM216 156h2v1h-2zM296 156h2v1h-2zM300 156h2v1h-2zM324 156h2v1h-2zM328 156h2v1h-2zM422 156h2v1h-2zM426 156h2v1h-2zM436 156h2v1h-2zM440 156h2v1h-2zM464 156h2v1h-2zM468 156h2v1h-2zM492 156h2v1h-2zM496 156h2v1h-2zM576 156h2v1h-2zM580 156h2v1h-2zM44 157h2v1h-2zM48 157h2v1h-2zM72 157h2v1h-2zM76 157h2v1h-2zM156 157h2v1h-2zM160 157h2v1h-2zM184 157h2v1h-2zM188 157h2v1h-2zM212 157h2v1h-2zM216 157h2v1h-2zM296 157h2v1h-2zM300 157h2v1h-2zM324 157h2v1h-2zM328 157h2v1h-2zM422 157h2v1h-2zM426 157h2v1h-2zM436 157h2v1h-2zM440 157h2v1h-2zM464 157h2v1h-2zM468 157h2v1h-2zM492 157h2v1h-2zM496 157h2v1h-2zM576 157h2v1h-2zM580 157h2v1h-2zM44 158h2v1h-2zM48 158h2v1h-2zM72 158h2v1h-2zM76 158h2v1h-2zM156 158h2v1h-2zM160 158h2v1h-2zM184 158h2v1h-2zM188 158h2v1h-2zM212 158h2v1h-2zM216 158h2v1h-2zM296 158h2v1h-2zM300 158h2v1h-2zM324 158h2v1h-2zM328 158h2v1h-2zM422 158h2v1h-2zM426 158h2v1h-2zM436 158h2v1h-2zM440 158h2v1h-2zM464 158h2v1h-2zM468 158h2v1h-2zM492 158h2v1h-2zM496 158h2v1h-2zM576 158h2v1h-2zM580 158h2v1h-2zM44 159h2v1h-2zM48 159h2v1h-2zM72 159h2v1h-2zM76 159h2v1h-2zM156 159h2v1h-2zM160 159h2v1h-2zM184 159h2v1h-2zM188 159h2v1h-2zM212 159h2v1h-2zM216 159h2v1h-2zM296 159h2v1h-2zM300 159h2v1h-2zM324 159h2v1h-2zM328 159h2v1h-2zM422 159h2v1h-2zM426 159h2v1h-2zM436 159h2v1h-2zM440 159h2v1h-2zM464 159h2v1h-2zM468 159h2v1h-2zM492 159h2v1h-2zM496 159h2v1h-2zM576 159h2v1h-2zM580 159h2v1h-2zM44 160h2v1h-2zM48 160h2v1h-2zM72 160h2v1h-2zM76 160h2v1h-2zM156 160h2v1h-2zM160 160h2v1h-2zM184 160h2v1h-2zM188 160h2v1h-2zM212 160h2v1h-2zM216 160h2v1h-2zM296 160h2v1h-2zM300 160h2v1h-2zM324 160h2v1h-2zM328 160h2v1h-2zM422 160h2v1h-2zM426 160h2v1h-2zM436 160h2v1h-2zM440 160h2v1h-2zM464 160h2v1h-2zM468 160h2v1h-2zM492 160h2v1h-2zM496 160h2v1h-2zM576 160h2v1h-2zM580 160h2v1h-2zM44 161h2v1h-2zM48 161h2v1h-2zM72 161h2v1h-2zM76 161h2v1h-2zM156 161h2v1h-2zM160 161h2v1h-2zM184 161h2v1h-2zM188 161h2v1h-2zM212 161h2v1h-2zM216 161h2v1h-2zM296 161h2v1h-2zM300 161h2v1h-2zM324 161h2v1h-2zM328 161h2v1h-2zM422 161h2v1h-2zM426 161h2v1h-2zM436 161h2v1h-2zM440 161h2v1h-2zM464 161h2v1h-2zM468 161h2v1h-2zM492 161h2v1h-2zM496 161h2v1h-2zM576 161h2v1h-2zM580 161h2v1h-2zM44 162h2v1h-2zM48 162h2v1h-2zM72 162h2v1h-2zM76 162h2v1h-2zM156 162h2v1h-2zM160 162h2v1h-2zM184 162h2v1h-2zM188 162h2v1h-2zM212 162h2v1h-2zM216 162h2v1h-2zM296 162h2v1h-2zM300 162h2v1h-2zM324 162h2v1h-2zM328 162h2v1h-2zM422 162h2v1h-2zM426 162h2v1h-2zM436 162h2v1h-2zM440 162h2v1h-2zM464 162h2v1h-2zM468 162h2v1h-2zM492 162h2v1h-2zM496 162h2v1h-2zM576 162h2v1h-2zM580 162h2v1h-2zM44 163h2v1h-2zM48 163h26v1h-26zM76 163h2v1h-2zM156 163h2v1h-2zM160 163h26v1h-26zM188 163h2v1h-2zM212 163h2v1h-2zM216 163h82v1h-82zM300 163h2v1h-2zM324 163h2v1h-2zM328 163h96v1h-96zM426 163h2v1h-2zM436 163h2v1h-2zM440 163h26v1h-26zM468 163h2v1h-2zM492 163h2v1h-2zM496 163h82v1h-82zM580 163h2v1h-2zM44 164h2v1h-2zM48 164h26v1h-26zM76 164h2v1h-2zM156 164h2v1h-2zM160 164h26v1h-26zM188 164h2v1h-2zM212 164h2v1h-2zM216 164h82v1h-82zM300 164h2v1h-2zM324 164h2v1h-2zM328 164h96v1h-96zM426 164h2v1h-2zM436 164h2v1h-2zM440 164h26v1h-26zM468 164h2v1h-2zM492 164h2v1h-2zM496 164h82v1h-82zM580 164h2v1h-2zM44 165h2v1h-2zM76 165h2v1h-2zM156 165h2v1h-2zM188 165h2v1h-2zM212 165h2v1h-2zM300 165h2v1h-2zM324 165h2v1h-2zM426 165h2v1h-2zM436 165h2v1h-2zM468 165h2v1h-2zM492 165h2v1h-2zM580 165h2v1h-2zM44 166h2v1h-2zM76 166h2v1h-2zM156 166h2v1h-2zM188 166h2v1h-2zM212 166h2v1h-2zM300 166h2v1h-2zM324 166h2v1h-2zM426 166h2v1h-2zM436 166h2v1h-2zM468 166h2v1h-2zM492 166h2v1h-2zM580 166h2v1h-2zM44 167h34v1h-34zM156 167h34v1h-34zM212 167h90v1h-90zM324 167h104v1h-104zM436 167h34v1h-34zM492 167h90v1h-90zM44 168h34v1h-34zM156 168h34v1h-34zM212 168h90v1h-90zM324 168h104v1h-104zM436 168h34v1h-34zM492 168h90v1h-90z"/>
</svg>
